<mxfile host="app.diagrams.net" modified="2020-10-29T05:48:03.050Z" agent="5.0 (X11; Linux x86_64) AppleWebKit/537.36 (KHTML, like Gecko) Chrome/86.0.4240.75 Safari/537.36" etag="IYjuvZUOJn4Kv8XCtiO3" version="13.8.6" type="github">
  <diagram id="YJc4ZtxMsPvknrAtSHdE" name="Page-1">
    <mxGraphModel dx="7602" dy="5199" grid="1" gridSize="10" guides="1" tooltips="1" connect="1" arrows="1" fold="1" page="1" pageScale="1" pageWidth="827" pageHeight="1169" math="0" shadow="0">
      <root>
        <mxCell id="0" />
        <mxCell id="1" parent="0" />
        <mxCell id="4CMgBj91cVDcOPhmYYKw-31" value="" style="rounded=0;whiteSpace=wrap;html=1;" vertex="1" parent="1">
          <mxGeometry x="-322" y="-1000" width="1580" height="1940" as="geometry" />
        </mxCell>
        <mxCell id="4CMgBj91cVDcOPhmYYKw-36" value="" style="rounded=0;whiteSpace=wrap;html=1;fillColor=#ffff88;strokeColor=none;" vertex="1" parent="1">
          <mxGeometry x="-330" y="-392.5" width="720" height="190" as="geometry" />
        </mxCell>
        <mxCell id="4CMgBj91cVDcOPhmYYKw-3" value="" style="rounded=1;whiteSpace=wrap;html=1;" vertex="1" parent="1">
          <mxGeometry x="-292" y="770" width="870" height="150" as="geometry" />
        </mxCell>
        <mxCell id="4CMgBj91cVDcOPhmYYKw-4" value="&lt;font style=&quot;font-size: 50px&quot;&gt;SW 사무실&lt;/font&gt;" style="text;html=1;strokeColor=none;fillColor=none;align=center;verticalAlign=middle;whiteSpace=wrap;rounded=0;" vertex="1" parent="1">
          <mxGeometry x="13" y="820" width="360" height="85" as="geometry" />
        </mxCell>
        <mxCell id="4CMgBj91cVDcOPhmYYKw-8" value="" style="rounded=1;whiteSpace=wrap;html=1;" vertex="1" parent="1">
          <mxGeometry x="428" y="580" width="120" height="60" as="geometry" />
        </mxCell>
        <mxCell id="4CMgBj91cVDcOPhmYYKw-9" value="" style="rounded=1;whiteSpace=wrap;html=1;" vertex="1" parent="1">
          <mxGeometry x="598" y="360" width="200" height="280" as="geometry" />
        </mxCell>
        <mxCell id="4CMgBj91cVDcOPhmYYKw-11" value="" style="rounded=1;whiteSpace=wrap;html=1;" vertex="1" parent="1">
          <mxGeometry x="598" y="-250" width="200" height="590" as="geometry" />
        </mxCell>
        <mxCell id="4CMgBj91cVDcOPhmYYKw-17" value="" style="rounded=1;whiteSpace=wrap;html=1;" vertex="1" parent="1">
          <mxGeometry x="1008" y="140" width="200" height="180" as="geometry" />
        </mxCell>
        <mxCell id="4CMgBj91cVDcOPhmYYKw-18" value="" style="rounded=1;whiteSpace=wrap;html=1;" vertex="1" parent="1">
          <mxGeometry x="1008" y="-260" width="200" height="370" as="geometry" />
        </mxCell>
        <mxCell id="4CMgBj91cVDcOPhmYYKw-19" value="" style="rounded=1;whiteSpace=wrap;html=1;" vertex="1" parent="1">
          <mxGeometry x="598" y="-530" width="200" height="260" as="geometry" />
        </mxCell>
        <mxCell id="4CMgBj91cVDcOPhmYYKw-21" value="" style="rounded=1;whiteSpace=wrap;html=1;" vertex="1" parent="1">
          <mxGeometry x="1008" y="-710" width="200" height="200" as="geometry" />
        </mxCell>
        <mxCell id="4CMgBj91cVDcOPhmYYKw-22" value="" style="shape=image;verticalLabelPosition=bottom;labelBackgroundColor=#ffffff;verticalAlign=top;aspect=fixed;imageAspect=0;image=https://images-na.ssl-images-amazon.com/images/I/71Y-4B4b40L._AC_SL1500_.jpg;" vertex="1" parent="1">
          <mxGeometry x="449.5" y="520" width="77" height="110" as="geometry" />
        </mxCell>
        <mxCell id="4CMgBj91cVDcOPhmYYKw-30" value="" style="rounded=0;whiteSpace=wrap;html=1;fillColor=#ffff88;strokeColor=none;" vertex="1" parent="1">
          <mxGeometry x="-322" y="660" width="1250" height="90" as="geometry" />
        </mxCell>
        <mxCell id="4CMgBj91cVDcOPhmYYKw-32" value="" style="rounded=1;whiteSpace=wrap;html=1;" vertex="1" parent="1">
          <mxGeometry x="-252" y="-190" width="320" height="80" as="geometry" />
        </mxCell>
        <mxCell id="4CMgBj91cVDcOPhmYYKw-33" value="" style="rounded=1;whiteSpace=wrap;html=1;" vertex="1" parent="1">
          <mxGeometry x="-252" y="-490" width="320" height="80" as="geometry" />
        </mxCell>
        <mxCell id="4CMgBj91cVDcOPhmYYKw-35" value="" style="shape=image;verticalLabelPosition=bottom;labelBackgroundColor=#ffffff;verticalAlign=top;aspect=fixed;imageAspect=0;image=https://st2.depositphotos.com/6025596/9459/v/450/depositphotos_94590862-stock-illustration-elevator-icon-lift-symbol.jpg;" vertex="1" parent="1">
          <mxGeometry x="-182" y="-310" width="180" height="180" as="geometry" />
        </mxCell>
        <mxCell id="4CMgBj91cVDcOPhmYYKw-38" value="" style="rounded=0;whiteSpace=wrap;html=1;fillColor=#ffff88;strokeColor=none;" vertex="1" parent="1">
          <mxGeometry x="178" y="-110" width="220" height="770" as="geometry" />
        </mxCell>
        <mxCell id="4CMgBj91cVDcOPhmYYKw-39" value="" style="rounded=0;whiteSpace=wrap;html=1;fillColor=#ffff88;strokeColor=none;" vertex="1" parent="1">
          <mxGeometry x="-122" y="240" width="330" height="90" as="geometry" />
        </mxCell>
        <mxCell id="4CMgBj91cVDcOPhmYYKw-40" value="" style="rounded=1;whiteSpace=wrap;html=1;" vertex="1" parent="1">
          <mxGeometry x="-292" y="-970" width="1160" height="170" as="geometry" />
        </mxCell>
        <mxCell id="4CMgBj91cVDcOPhmYYKw-41" value="&lt;font style=&quot;font-size: 50px&quot;&gt;NW 사무실&lt;/font&gt;" style="text;html=1;strokeColor=none;fillColor=none;align=center;verticalAlign=middle;whiteSpace=wrap;rounded=0;" vertex="1" parent="1">
          <mxGeometry x="108" y="-927.5" width="360" height="85" as="geometry" />
        </mxCell>
        <mxCell id="4CMgBj91cVDcOPhmYYKw-42" value="" style="rounded=0;whiteSpace=wrap;html=1;fillColor=#ffff88;strokeColor=none;" vertex="1" parent="1">
          <mxGeometry x="178" y="-690" width="220" height="770" as="geometry" />
        </mxCell>
        <mxCell id="4CMgBj91cVDcOPhmYYKw-43" value="" style="rounded=0;whiteSpace=wrap;html=1;fillColor=#ffff88;strokeColor=none;" vertex="1" parent="1">
          <mxGeometry x="-322" y="-780" width="1220" height="130" as="geometry" />
        </mxCell>
        <mxCell id="4CMgBj91cVDcOPhmYYKw-45" value="" style="rounded=0;whiteSpace=wrap;html=1;fillColor=#ffff88;strokeColor=none;" vertex="1" parent="1">
          <mxGeometry x="828" y="-780" width="150" height="1530" as="geometry" />
        </mxCell>
        <mxCell id="4CMgBj91cVDcOPhmYYKw-46" value="" style="rounded=1;whiteSpace=wrap;html=1;" vertex="1" parent="1">
          <mxGeometry x="1008" y="560" width="210" height="360" as="geometry" />
        </mxCell>
        <mxCell id="4CMgBj91cVDcOPhmYYKw-47" value="&lt;span style=&quot;font-size: 50px&quot;&gt;빈방&lt;/span&gt;" style="text;html=1;strokeColor=none;fillColor=none;align=center;verticalAlign=middle;whiteSpace=wrap;rounded=0;" vertex="1" parent="1">
          <mxGeometry x="1003" y="675" width="210" height="85" as="geometry" />
        </mxCell>
        <mxCell id="4CMgBj91cVDcOPhmYYKw-49" value="" style="rounded=1;whiteSpace=wrap;html=1;" vertex="1" parent="1">
          <mxGeometry x="1008" y="-490" width="200" height="200" as="geometry" />
        </mxCell>
        <mxCell id="4CMgBj91cVDcOPhmYYKw-51" value="" style="rounded=1;whiteSpace=wrap;html=1;" vertex="1" parent="1">
          <mxGeometry x="1008" y="347" width="200" height="180" as="geometry" />
        </mxCell>
        <mxCell id="4CMgBj91cVDcOPhmYYKw-52" value="" style="rounded=0;whiteSpace=wrap;html=1;fontColor=#ffffff;fillColor=#333333;strokeColor=none;" vertex="1" parent="1">
          <mxGeometry x="408" y="-460" width="180" height="960" as="geometry" />
        </mxCell>
        <mxCell id="4CMgBj91cVDcOPhmYYKw-53" value="" style="rounded=0;whiteSpace=wrap;html=1;fontColor=#ffffff;fillColor=#333333;strokeColor=none;" vertex="1" parent="1">
          <mxGeometry x="578" y="-630" width="220" height="80" as="geometry" />
        </mxCell>
        <mxCell id="4CMgBj91cVDcOPhmYYKw-54" value="" style="rounded=0;whiteSpace=wrap;html=1;fontColor=#ffffff;fillColor=#333333;strokeColor=none;" vertex="1" parent="1">
          <mxGeometry x="598" y="760" width="380" height="160" as="geometry" />
        </mxCell>
        <mxCell id="4CMgBj91cVDcOPhmYYKw-55" value="" style="rounded=0;whiteSpace=wrap;html=1;fontColor=#ffffff;fillColor=#333333;strokeColor=none;" vertex="1" parent="1">
          <mxGeometry x="-315" y="560" width="530" height="90" as="geometry" />
        </mxCell>
        <mxCell id="4CMgBj91cVDcOPhmYYKw-56" value="" style="rounded=0;whiteSpace=wrap;html=1;fontColor=#ffffff;fillColor=#333333;strokeColor=none;" vertex="1" parent="1">
          <mxGeometry x="-312" y="-90" width="530" height="100" as="geometry" />
        </mxCell>
        <mxCell id="4CMgBj91cVDcOPhmYYKw-58" value="" style="rounded=0;whiteSpace=wrap;html=1;fontColor=#ffffff;fillColor=#333333;strokeColor=none;" vertex="1" parent="1">
          <mxGeometry x="148" y="-530" width="80" height="120" as="geometry" />
        </mxCell>
        <mxCell id="4CMgBj91cVDcOPhmYYKw-59" value="" style="rounded=0;whiteSpace=wrap;html=1;fontColor=#ffffff;fillColor=#333333;strokeColor=none;" vertex="1" parent="1">
          <mxGeometry x="138" y="-200" width="80" height="120" as="geometry" />
        </mxCell>
        <mxCell id="4CMgBj91cVDcOPhmYYKw-60" value="" style="rounded=0;whiteSpace=wrap;html=1;fontColor=#ffffff;fillColor=#333333;strokeColor=none;" vertex="1" parent="1">
          <mxGeometry x="138" width="80" height="230" as="geometry" />
        </mxCell>
        <mxCell id="4CMgBj91cVDcOPhmYYKw-61" value="" style="rounded=0;whiteSpace=wrap;html=1;fontColor=#ffffff;fillColor=#333333;strokeColor=none;" vertex="1" parent="1">
          <mxGeometry x="135" y="350" width="80" height="220" as="geometry" />
        </mxCell>
        <mxCell id="4CMgBj91cVDcOPhmYYKw-62" value="&lt;span style=&quot;font-size: 50px&quot;&gt;20C.04&lt;br&gt;6명&lt;br&gt;&lt;/span&gt;" style="text;html=1;strokeColor=none;fillColor=none;align=center;verticalAlign=middle;whiteSpace=wrap;rounded=0;" vertex="1" parent="1">
          <mxGeometry x="1008" y="400" width="210" height="85" as="geometry" />
        </mxCell>
        <mxCell id="4CMgBj91cVDcOPhmYYKw-63" value="&lt;span style=&quot;font-size: 50px&quot;&gt;20C.03&lt;br&gt;8명&lt;br&gt;&lt;/span&gt;" style="text;html=1;strokeColor=none;fillColor=none;align=center;verticalAlign=middle;whiteSpace=wrap;rounded=0;" vertex="1" parent="1">
          <mxGeometry x="593" y="510" width="210" height="85" as="geometry" />
        </mxCell>
        <mxCell id="4CMgBj91cVDcOPhmYYKw-68" value="&lt;span style=&quot;font-size: 50px&quot;&gt;20C.02&lt;br&gt;&lt;font color=&quot;#ff3333&quot;&gt;불가&lt;/font&gt;&lt;br&gt;&lt;/span&gt;" style="text;html=1;strokeColor=none;fillColor=none;align=center;verticalAlign=middle;whiteSpace=wrap;rounded=0;" vertex="1" parent="1">
          <mxGeometry x="593" y="-10" width="210" height="85" as="geometry" />
        </mxCell>
        <mxCell id="4CMgBj91cVDcOPhmYYKw-69" value="&lt;span style=&quot;font-size: 50px&quot;&gt;20C.01&lt;br&gt;&lt;font color=&quot;#ff3333&quot;&gt;불가&lt;/font&gt;&lt;br&gt;&lt;/span&gt;" style="text;html=1;strokeColor=none;fillColor=none;align=center;verticalAlign=middle;whiteSpace=wrap;rounded=0;" vertex="1" parent="1">
          <mxGeometry x="593" y="-450" width="210" height="85" as="geometry" />
        </mxCell>
        <mxCell id="4CMgBj91cVDcOPhmYYKw-71" value="&lt;span style=&quot;font-size: 50px&quot;&gt;20C.05&lt;br&gt;6명&lt;br&gt;&lt;/span&gt;" style="text;html=1;strokeColor=none;fillColor=none;align=center;verticalAlign=middle;whiteSpace=wrap;rounded=0;" vertex="1" parent="1">
          <mxGeometry x="1008" y="190" width="210" height="85" as="geometry" />
        </mxCell>
        <mxCell id="4CMgBj91cVDcOPhmYYKw-72" value="&lt;span style=&quot;font-size: 50px&quot;&gt;20C.06&lt;br&gt;&lt;font color=&quot;#ff3333&quot;&gt;불가&lt;/font&gt;&lt;br&gt;&lt;/span&gt;" style="text;html=1;strokeColor=none;fillColor=none;align=center;verticalAlign=middle;whiteSpace=wrap;rounded=0;" vertex="1" parent="1">
          <mxGeometry x="1008" y="-170" width="210" height="85" as="geometry" />
        </mxCell>
        <mxCell id="4CMgBj91cVDcOPhmYYKw-73" value="&lt;span style=&quot;font-size: 50px&quot;&gt;20C.07&lt;br&gt;6명&lt;br&gt;&lt;/span&gt;" style="text;html=1;strokeColor=none;fillColor=none;align=center;verticalAlign=middle;whiteSpace=wrap;rounded=0;" vertex="1" parent="1">
          <mxGeometry x="1008" y="-420" width="210" height="85" as="geometry" />
        </mxCell>
        <mxCell id="4CMgBj91cVDcOPhmYYKw-74" value="&lt;span style=&quot;font-size: 50px&quot;&gt;20C.08&lt;br&gt;6명&lt;br&gt;&lt;/span&gt;" style="text;html=1;strokeColor=none;fillColor=none;align=center;verticalAlign=middle;whiteSpace=wrap;rounded=0;" vertex="1" parent="1">
          <mxGeometry x="1008" y="-640" width="210" height="85" as="geometry" />
        </mxCell>
        <mxCell id="4CMgBj91cVDcOPhmYYKw-75" value="" style="rounded=1;whiteSpace=wrap;html=1;" vertex="1" parent="1">
          <mxGeometry x="-302" y="50" width="200" height="500" as="geometry" />
        </mxCell>
        <mxCell id="4CMgBj91cVDcOPhmYYKw-76" value="" style="rounded=1;whiteSpace=wrap;html=1;" vertex="1" parent="1">
          <mxGeometry x="-82" y="50" width="200" height="180" as="geometry" />
        </mxCell>
        <mxCell id="4CMgBj91cVDcOPhmYYKw-77" value="" style="rounded=1;whiteSpace=wrap;html=1;" vertex="1" parent="1">
          <mxGeometry x="-82" y="350" width="200" height="200" as="geometry" />
        </mxCell>
        <mxCell id="4CMgBj91cVDcOPhmYYKw-78" value="&lt;span style=&quot;font-size: 50px&quot;&gt;20C.02&lt;br&gt;&lt;font color=&quot;#ff3333&quot;&gt;불가&lt;/font&gt;&lt;br&gt;&lt;/span&gt;" style="text;html=1;strokeColor=none;fillColor=none;align=center;verticalAlign=middle;whiteSpace=wrap;rounded=0;" vertex="1" parent="1">
          <mxGeometry x="-307" y="280" width="210" height="85" as="geometry" />
        </mxCell>
        <mxCell id="4CMgBj91cVDcOPhmYYKw-79" value="&lt;span style=&quot;font-size: 50px&quot;&gt;20C.07&lt;br&gt;6명&lt;br&gt;&lt;/span&gt;" style="text;html=1;strokeColor=none;fillColor=none;align=center;verticalAlign=middle;whiteSpace=wrap;rounded=0;" vertex="1" parent="1">
          <mxGeometry x="-75" y="95" width="210" height="85" as="geometry" />
        </mxCell>
        <mxCell id="4CMgBj91cVDcOPhmYYKw-80" value="&lt;span style=&quot;font-size: 50px&quot;&gt;20C.07&lt;br&gt;6명&lt;br&gt;&lt;/span&gt;" style="text;html=1;strokeColor=none;fillColor=none;align=center;verticalAlign=middle;whiteSpace=wrap;rounded=0;" vertex="1" parent="1">
          <mxGeometry x="-75" y="410" width="210" height="85" as="geometry" />
        </mxCell>
        <mxCell id="4CMgBj91cVDcOPhmYYKw-57" value="" style="rounded=0;whiteSpace=wrap;html=1;fontColor=#ffffff;fillColor=#333333;strokeColor=none;" vertex="1" parent="1">
          <mxGeometry x="-312" y="-640" width="540" height="110" as="geometry" />
        </mxCell>
        <mxCell id="4CMgBj91cVDcOPhmYYKw-82" value="" style="rounded=1;whiteSpace=wrap;html=1;" vertex="1" parent="1">
          <mxGeometry x="428" y="-550" width="120" height="60" as="geometry" />
        </mxCell>
        <mxCell id="4CMgBj91cVDcOPhmYYKw-84" value="" style="shape=image;verticalLabelPosition=bottom;labelBackgroundColor=#ffffff;verticalAlign=top;aspect=fixed;imageAspect=0;image=https://dijf55il5e0d1.cloudfront.net/images/rr/9/4/7/94788_1000.jpg;" vertex="1" parent="1">
          <mxGeometry x="435.5" y="-610" width="105" height="105" as="geometry" />
        </mxCell>
        <mxCell id="4CMgBj91cVDcOPhmYYKw-44" value="" style="rounded=1;whiteSpace=wrap;html=1;" vertex="1" parent="1">
          <mxGeometry x="908" y="-970" width="320" height="170" as="geometry" />
        </mxCell>
        <mxCell id="4CMgBj91cVDcOPhmYYKw-48" value="&lt;span style=&quot;font-size: 50px&quot;&gt;빈 공간&lt;/span&gt;" style="text;html=1;strokeColor=none;fillColor=none;align=center;verticalAlign=middle;whiteSpace=wrap;rounded=0;" vertex="1" parent="1">
          <mxGeometry x="968" y="-930" width="210" height="85" as="geometry" />
        </mxCell>
        <mxCell id="4CMgBj91cVDcOPhmYYKw-90" value="" style="rounded=0;whiteSpace=wrap;html=1;fillColor=#ffff88;strokeColor=none;" vertex="1" parent="1">
          <mxGeometry x="-2" y="-780" width="1220" height="50" as="geometry" />
        </mxCell>
        <mxCell id="4CMgBj91cVDcOPhmYYKw-91" value="" style="shape=image;verticalLabelPosition=bottom;labelBackgroundColor=#ffffff;verticalAlign=top;aspect=fixed;imageAspect=0;image=https://st2.depositphotos.com/6025596/9459/v/450/depositphotos_94590862-stock-illustration-elevator-icon-lift-symbol.jpg;" vertex="1" parent="1">
          <mxGeometry x="-182" y="-600" width="180" height="180" as="geometry" />
        </mxCell>
      </root>
    </mxGraphModel>
  </diagram>
</mxfile>
